# xmcd
#
# Track frame offsets: 
#        150
#        13981
#        27930
#        53419
#        70685
#        84973
#        98807
#        111811
#        132008
#
# Disc length: 2168 seconds
#
# Revision: 0
# Processed by: cddbd v1.5.2PL0 Copyright (c) Steve Scherf et al.
# Submitted via: ExactAudioCopy v0.95b4
#
DISCID=65087609
DTITLE=Billy Hector and The Fairlanes - All The Way Live
DYEAR=2001
DGENRE=Blues
TTITLE0=Jumpin Bad
TTITLE1=Wild Woman
TTITLE2=Hurts Me Too
TTITLE3=T-Bone Shuffle
TTITLE4=Three Time Loser
TTITLE5=Too Many Cooks
TTITLE6=Wait On Time
TTITLE7=If You Love Me Like You Say
TTITLE8=Help Me
EXTD=
EXTT0=
EXTT1=
EXTT2=
EXTT3=
EXTT4=
EXTT5=
EXTT6=
EXTT7=
EXTT8=
PLAYORDER=
